<?xml version="1.0" encoding="utf-8"?>
<!-- Generator: Adobe Illustrator 22.0.1, SVG Export Plug-In . SVG Version: 6.00 Build 0)  -->
<svg version="1.1" id="Layer_1" xmlns="http://www.w3.org/2000/svg" xmlns:xlink="http://www.w3.org/1999/xlink" x="0px" y="0px"
	 viewBox="0 0 1024 70" style="enable-background:new 0 0 1024 70;" xml:space="preserve">
<style type="text/css">
	.st0{clip-path:url(#SVGID_2_);}
	.st1{fill:#FF6941;}
</style>
<g>
	<defs>
		<rect id="SVGID_1_" y="-1" width="1024" height="72"/>
	</defs>
	<clipPath id="SVGID_2_">
		<use xlink:href="#SVGID_1_"  style="overflow:visible;"/>
	</clipPath>
	<g class="st0">
		<g>
			<polygon class="st1" points="527.4,0 467.2,0 393.6,70 453.9,70 			"/>
		</g>
		<g>
			<polygon class="st1" points="221,0 160.7,0 87.2,70 147.5,70 			"/>
		</g>
		<g>
			<polygon class="st1" points="425.3,0 365,0 291.5,70 351.7,70 			"/>
		</g>
		<g>
			<polygon class="st1" points="629.6,0 569.3,0 495.8,70 556,70 			"/>
		</g>
		<g>
			<polygon class="st1" points="323.1,0 262.9,0 189.3,70 249.6,70 			"/>
		</g>
		<g>
			<polygon class="st1" points="-15,70 45.3,70 118.8,0 58.6,0 			"/>
		</g>
		<g>
			<polygon class="st1" points="731.7,0 671.5,0 597.9,70 658.2,70 			"/>
		</g>
		<g>
			<polygon class="st1" points="833.9,0 773.6,0 700.1,70 760.3,70 			"/>
		</g>
		<g>
			<polygon class="st1" points="16.7,0 -57,0 -57,70 -56.8,70 			"/>
		</g>
		<g>
			<polygon class="st1" points="1006.5,70 1081,70 1081,0 1080.1,0 			"/>
		</g>
		<g>
			<polygon class="st1" points="1038.2,0 977.9,0 904.4,70 964.6,70 			"/>
		</g>
		<g>
			<polygon class="st1" points="936,0 875.8,0 802.2,70 862.5,70 			"/>
		</g>
	</g>
</g>
</svg>
