<?xml version="1.0" encoding="utf-8"?>
<!-- Generator: Adobe Illustrator 22.0.1, SVG Export Plug-In . SVG Version: 6.00 Build 0)  -->
<svg version="1.1" id="Layer_1" xmlns="http://www.w3.org/2000/svg" xmlns:xlink="http://www.w3.org/1999/xlink" x="0px" y="0px"
	 viewBox="0 0 1024 70" style="enable-background:new 0 0 1024 70;" xml:space="preserve">
<style type="text/css">
	.st0{clip-path:url(#SVGID_2_);}
</style>
<g>
	<defs>
		<rect id="SVGID_1_" y="-1" width="1024" height="72"/>
	</defs>
	<clipPath id="SVGID_2_">
		<use xlink:href="#SVGID_1_"  style="overflow:visible;"/>
	</clipPath>
	<g class="st0">
		<g>
			<polygon points="527.4,-1 467.2,-1 393.6,71 453.9,71 			"/>
		</g>
		<g>
			<polygon points="221,-1 160.7,-1 87.2,71 147.5,71 			"/>
		</g>
		<g>
			<polygon points="425.3,-1 365,-1 291.5,71 351.7,71 			"/>
		</g>
		<g>
			<polygon points="629.6,-1 569.3,-1 495.8,71 556,71 			"/>
		</g>
		<g>
			<polygon points="323.1,-1 262.9,-1 189.3,71 249.6,71 			"/>
		</g>
		<g>
			<polygon points="-15,71 45.3,71 118.8,-1 58.6,-1 			"/>
		</g>
		<g>
			<polygon points="731.7,-1 671.5,-1 597.9,71 658.2,71 			"/>
		</g>
		<g>
			<polygon points="833.9,-1 773.6,-1 700.1,71 760.3,71 			"/>
		</g>
		<g>
			<polygon points="16.7,-1 -57,-1 -57,71 -56.8,71 			"/>
		</g>
		<g>
			<polygon points="1006.5,71 1081,71 1081,-1 1080.1,-1 			"/>
		</g>
		<g>
			<polygon points="1038.2,-1 977.9,-1 904.4,71 964.6,71 			"/>
		</g>
		<g>
			<polygon points="936,-1 875.8,-1 802.2,71 862.5,71 			"/>
		</g>
	</g>
</g>
</svg>
